<?xml version="1.0" standalone="no"?><!DOCTYPE svg PUBLIC "-//W3C//DTD SVG 1.1//EN" "http://www.w3.org/Graphics/SVG/1.1/DTD/svg11.dtd"><svg t="1621840566712" class="icon" viewBox="0 0 1024 1024" version="1.1" xmlns="http://www.w3.org/2000/svg" p-id="8254" xmlns:xlink="http://www.w3.org/1999/xlink" width="200" height="200"><defs><style type="text/css"></style></defs><path d="M819.636 1024H205.604a10.514 10.514 0 0 1-10.514-10.514V854.9c0-135.24 109.634-244.876 244.876-244.876h145.308c135.242 0 244.876 109.634 244.876 244.876v158.586a10.514 10.514 0 0 1-10.514 10.514z" fill="#F6E080" p-id="8255"></path><path d="M830.144 854.904v131.248L512 1006l-316.904-19.848v-131.248c0-105.922 67.25-196.136 161.382-230.274l312.274-0.004c94.136 34.134 161.392 124.35 161.392 230.278z" fill="#F6E080" p-id="8256"></path><path d="M205.604 1024h99.168l15.77-18 15.77 18h352.618l15.77-18 15.77 18h99.168a10.514 10.514 0 0 0 10.514-10.514v-27.334H195.09v27.334a10.514 10.514 0 0 0 10.514 10.514z" fill="#ECCD61" p-id="8257"></path><path d="M496.842 703.75v151.876a15.77 15.77 0 1 0 31.538 0v-151.872z" fill="#ECB85E" p-id="8258"></path><path d="M356.478 624.634l60.688 147.612c2.488 6.052 9.84 8.386 15.362 4.876l80.082-50.896-22.77-58.1-58.648-57.926c-26.154 0.92-51.268 5.932-74.714 14.434zM594.032 610.198l-58.65 57.926-22.77 58.1 80.082 50.896c5.522 3.51 12.874 1.176 15.362-4.876l60.69-147.616c-23.444-8.498-48.558-13.51-74.714-14.43z" fill="#FCF5F5" p-id="8259"></path><path d="M512.612 726.224l-81.54-116.198h163.08z" fill="#E2AE84" p-id="8260"></path><path d="M782.198 361.328c87.394-278.852-137.472-288.802-137.472-288.802S618.142 0 498.512 0C383.06 0 310.26 35.716 209.734 19.434c-6.034-0.978-11.65 3.274-12.228 9.36-4.414 46.342-16.11 223.456 51.01 318.664a172.766 172.766 0 0 0 7.774 10.214z" fill="#26457D" p-id="8261"></path><path d="M307.02 312.35c-25.326 0-47.326 14.212-58.48 35.09 4.71 6.68 9.788 12.976 15.304 18.778l50.03 1.594V312.7a67.492 67.492 0 0 0-6.854-0.35zM775.13 382.518a628.888 628.888 0 0 0 7.062-21.19c-7.608-28.212-33.36-48.976-63.976-48.976-2.314 0-4.6 0.12-6.854 0.352v67.782z" fill="#21386B" p-id="8262"></path><path d="M718.218 350.198c-2.314 0-4.6 0.12-6.854 0.352l-18 79.654 17.494 14.268 7.36 20.266c63.976 0 65.312-61.2 63.528-67.198-8.146-27.378-33.506-47.342-63.528-47.342z" fill="#E2AE84" p-id="8263"></path><path d="M718.218 444.89a66.56 66.56 0 0 1-7.376-0.42l-20.222 18.728 14.086 18.156a66.52 66.52 0 0 0 13.512 1.382c36.6 0 66.27-29.67 66.27-66.27a66.2 66.2 0 0 0-2.758-18.924c-8.144 27.378-33.49 47.348-63.512 47.348z" fill="#D7A379" p-id="8264"></path><path d="M307.02 350.198c2.314 0 4.6 0.12 6.854 0.352l18 79.654-17.494 14.268-7.36 20.266c-63.976 0-65.312-61.2-63.528-67.198 8.146-27.378 33.506-47.342 63.528-47.342z" fill="#E2AE84" p-id="8265"></path><path d="M307.02 444.89a66.56 66.56 0 0 0 7.376-0.42l20.222 18.728-14.086 18.156a66.52 66.52 0 0 1-13.512 1.382c-36.6 0-66.27-29.67-66.27-66.27a66.2 66.2 0 0 1 2.758-18.924c8.146 27.378 33.49 47.348 63.512 47.348z" fill="#D7A379" p-id="8266"></path><path d="M711.366 304.332v107.872c0 109.764-88.982 198.746-198.746 198.746h-0.002c-109.764 0-198.746-88.982-198.746-198.746V204.244c0-8.044 8.668-13.136 15.662-9.162 35.224 20.01 130.072 57.72 286.684 5.478 5.306-1.77 11.106 0.898 13.122 6.116 7.388 19.122 28.67 62.618 76.53 88.436a10.474 10.474 0 0 1 5.496 9.22z" fill="#F0C69E" p-id="8267"></path><path d="M512.62 591.102c-109.764 0-198.746-88.982-198.746-198.746v37.848c0 109.764 88.982 198.746 198.746 198.746 109.764 0 198.746-88.98 198.746-198.746v-37.848c0 109.764-88.982 198.746-198.746 198.746z" fill="#E6BA94" p-id="8268"></path><path d="M336.31 885.182v100.97l-15.77 18-15.77-18v-100.97a15.748 15.748 0 0 1 15.77-15.77 15.76 15.76 0 0 1 15.77 15.77zM720.468 885.182v100.97l-15.77 18-15.77-18v-100.97a15.76 15.76 0 0 1 15.77-15.77 15.748 15.748 0 0 1 15.77 15.77z" fill="#ECB85E" p-id="8269"></path><path d="M304.77 986.152h31.54V1024h-31.54zM688.928 986.152h31.54V1024h-31.54z" fill="#EAA949" p-id="8270"></path><path d="M417.258 365.198a15.512 15.512 0 0 0-15.514 15.514v43.834a15.514 15.514 0 0 0 31.028 0v-43.834a15.512 15.512 0 0 0-15.514-15.514zM606.742 440.06a15.512 15.512 0 0 0 15.514-15.514v-43.834c0-8.568-6.944-15.514-15.514-15.514s-15.514 6.946-15.514 15.514v43.834a15.512 15.512 0 0 0 15.514 15.514z" fill="#5E6B75" p-id="8271"></path><path d="M569.19 508.094a15.548 15.548 0 0 0-28.752-11.838c-0.052 0.13-6.028 13.118-28.44 13.118s-28.388-12.988-28.44-13.118a15.546 15.546 0 0 0-28.752 11.838c4.95 12.024 22.568 32.372 57.19 32.372 34.628 0 52.244-20.35 57.194-32.372z" fill="#DC4955" p-id="8272"></path></svg>