<svg width="2500" height="1740" xmlns="http://www.w3.org/2000/svg">
 <defs>
  <style>.cls-1, .cls-2 {
        fill: #7ed0ff;
      }

      .cls-1, .cls-4 {
        fill-rule: evenodd;
      }

      .cls-3, .cls-4 {
        fill: none;
        stroke: #7ed0ff;
        stroke-width: 2px;
      }</style>
 </defs>
 <g>
  <title>background</title>
  <rect fill="none" id="canvas_background" height="819" width="1662" y="-1" x="-1"/>
 </g>
 <g>
  <title>Layer 1</title>
  <g id="母线">
   <path d="m374.551,429.4l0,4.619l1740.149,0l0,-4.619l-1740.149,0z" class="cls-1" data-name="形状 1 拷贝 2" id="形状_1_拷贝_2"/>
   <path d="m281.473,1258.48l0,4.62l1931.807,0l0,-4.62l-1931.807,0z" class="cls-1" data-name="形状 1 拷贝 2" id="形状_1_拷贝_2-2"/>
   <path d="m355.375,505.614l0,4.618l1771.3,0l0,-4.618l-1771.3,0z" class="cls-1" data-name="形状 1 拷贝 4" id="形状_1_拷贝_4"/>
   <path d="m281.473,1332.38l0,4.62l1931.817,0l0,-4.62l-1931.817,0z" class="cls-1" data-name="形状 1 拷贝 4" id="形状_1_拷贝_4-2"/>
  </g>
  <g data-name="母线互感器 拷贝 6" id="母线互感器_拷贝_6">
   <g data-name="开闸 拷贝 2" id="开闸_拷贝_2">
    <path d="m494.387,1216.91l-2.31,0l0,46.19l2.31,0l0,-46.19z" class="cls-1" data-name="形状 5 拷贝 27" id="形状_5_拷贝_27"/>
    <path d="m493.954,1078.34l-2.309,0l0,80.83l2.309,0l0,-80.83z" class="cls-1" data-name="形状 5 拷贝 27" id="形状_5_拷贝_27-2"/>
    <path d="m492.26,1153.98a4.615,4.615 0 1 1 -4.619,4.62a4.614,4.614 0 0 1 4.619,-4.62z" class="cls-1" data-name="椭圆 774 拷贝 3" id="椭圆_774_拷贝_3"/>
    <circle r="4.609" cy="1211.715" cx="492.265" class="cls-2" data-name="椭圆 774 拷贝 3" id="椭圆_774_拷贝_3-2"/>
    <path d="m494.594,1162.06l-4.619,0l0,46.19l4.619,0l0,-46.19z" class="cls-1" data-name="形状 6 拷贝 2" id="形状_6_拷贝_2"/>
    <path d="m500.16,647.642l-2.309,0l0,46.187l2.309,0l0,-46.187z" class="cls-1" data-name="形状 5 拷贝 28" id="形状_5_拷贝_28"/>
    <path d="m499.727,509.078l-2.309,0l0,80.829l2.309,0l0,-80.829z" class="cls-1" data-name="形状 5 拷贝 28" id="形状_5_拷贝_28-2"/>
    <circle r="4.625" cy="589.329" cx="498.031" class="cls-2" data-name="椭圆 774 拷贝 12" id="椭圆_774_拷贝_12"/>
    <path d="m498.034,637.827a4.619,4.619 0 1 1 -4.619,4.618a4.618,4.618 0 0 1 4.619,-4.618z" class="cls-1" data-name="椭圆 774 拷贝 12" id="椭圆_774_拷贝_12-2"/>
    <path d="m500.367,592.793l-4.619,0l0,46.188l4.619,0l0,-46.188z" class="cls-1" data-name="形状 6 拷贝 11" id="形状_6_拷贝_11"/>
    <path d="m1889.26,645.332l-2.31,0l0,46.188l2.31,0l0,-46.188z" class="cls-1" data-name="形状 5 拷贝 30" id="形状_5_拷贝_30"/>
    <path d="m1888.83,431.714l-2.31,0l0,155.886l2.31,0l0,-155.886z" class="cls-1" data-name="形状 5 拷贝 30" id="形状_5_拷贝_30-2"/>
    <circle r="4.625" cy="587.015" cx="1887.125" class="cls-2" data-name="椭圆 774 拷贝 14" id="椭圆_774_拷贝_14"/>
    <circle r="4.625" cy="640.14" cx="1887.125" class="cls-2" data-name="椭圆 774 拷贝 14" id="椭圆_774_拷贝_14-2"/>
    <path d="m1889.47,590.484l-4.62,0l0,46.188l4.62,0l0,-46.188z" class="cls-1" data-name="形状 6 拷贝 13" id="形状_6_拷贝_13"/>
   </g>
  </g>
  <g data-name="母线互感器 拷贝 7" id="母线互感器_拷贝_7">
   <g data-name="开闸 拷贝 2" id="开闸_拷贝_2-2">
    <path d="m1961.64,1332.38l2.31,0l0,-160.51l-2.31,0l0,160.51z" class="cls-1" data-name="形状 5 拷贝 29" id="形状_5_拷贝_29"/>
    <path d="m1961.79,1117.6l2.31,0l0,-46.18l-2.31,0l0,46.18z" class="cls-1" data-name="形状 5 拷贝 29" id="形状_5_拷贝_29-2"/>
    <circle r="4.61" cy="1171.3" cx="1962.73" class="cls-2" data-name="椭圆 774 拷贝 4" id="椭圆_774_拷贝_4"/>
    <circle r="4.61" cy="1118.185" cx="1962.73" class="cls-2" data-name="椭圆 774 拷贝 4" id="椭圆_774_拷贝_4-2"/>
    <path d="m1960.42,1167.83l4.62,0l0,-46.19l-4.62,0l0,46.19z" class="cls-1" data-name="形状 6 拷贝 3" id="形状_6_拷贝_3"/>
   </g>
  </g>
  <g id="主变1">
   <g data-name="组 65" id="组_65">
    <circle r="46.205" cy="849.093" cx="1571.955" class="cls-3" data-name="椭圆 773" id="椭圆_773"/>
    <g data-name="组 64" id="组_64">
     <path d="m1570.84,821.39l2.31,0l0,27.71l-2.31,0l0,-27.71z" class="cls-1" data-name="形状 2" id="形状_2"/>
     <path d="m1597.28,860.8l-1.16,2l-24,-13.856l1.16,-2l24,13.856z" class="cls-1" data-name="形状 2 拷贝" id="形状_2_拷贝"/>
     <path d="m1547.77,860.912l1.16,2.036l24.21,-14.108l-1.17,-2.037l-24.2,14.109z" class="cls-1" data-name="形状 2 拷贝 2" id="形状_2_拷贝_2"/>
    </g>
   </g>
   <g data-name="组 65 拷贝" id="组_65_拷贝">
    <path d="m1531.56,871.977a46.188,46.188 0 1 1 -46.19,46.188a46.19,46.19 0 0 1 46.19,-46.188z" class="cls-4" data-name="椭圆 773" id="椭圆_773-2"/>
    <path d="m1531.58,898.758l-17.31,34.634l34.63,0l-17.32,-34.634" class="cls-4" data-name="形状 3" id="形状_3"/>
   </g>
   <g data-name="组 65 拷贝 2" id="组_65_拷贝_2">
    <path d="m1612.26,871.977a46.188,46.188 0 1 1 -46.17,46.188a46.179,46.179 0 0 1 46.17,-46.188z" class="cls-4" data-name="椭圆 773" id="椭圆_773-3"/>
    <g data-name="组 64" id="组_64-2">
     <path d="m1611.15,890.452l2.31,0l0,27.713l-2.31,0l0,-27.713z" class="cls-1" data-name="形状 2" id="形状_2-2"/>
     <path d="m1636.43,931.021l-1.16,2l-24,-13.856l1.16,-2l24,13.856z" class="cls-1" data-name="形状 2 拷贝" id="形状_2_拷贝-2"/>
     <path d="m1588.07,929.975l1.17,2.036l24.2,-14.108l-1.16,-2.037l-24.21,14.109z" class="cls-1" data-name="形状 2 拷贝 2" id="形状_2_拷贝_2-2"/>
    </g>
   </g>
  </g>
  <g id="主变2">
   <g data-name="组 65" id="组_65-2">
    <path d="m757.714,802.912a46.188,46.188 0 1 1 -46.206,46.188a46.2,46.2 0 0 1 46.206,-46.188z" class="cls-4" data-name="椭圆 773" id="椭圆_773-4"/>
    <g data-name="组 64" id="组_64-3">
     <path d="m758.915,821.39l-2.309,0l0,27.71l2.309,0l0,-27.71z" class="cls-1" data-name="形状 2" id="形状_2-3"/>
     <path d="m732.481,860.8l1.155,2l24,-13.856l-1.155,-2l-24,13.856z" class="cls-1" data-name="形状 2 拷贝" id="形状_2_拷贝-3"/>
     <path d="m781.993,860.912l-1.165,2.036l-24.206,-14.108l1.164,-2.037l24.207,14.109z" class="cls-1" data-name="形状 2 拷贝 2" id="形状_2_拷贝_2-3"/>
    </g>
   </g>
   <g data-name="组 65 拷贝" id="组_65_拷贝-2">
    <circle r="46.187" cy="918.157" cx="798.125" class="cls-3" data-name="椭圆 773" id="椭圆_773-5"/>
    <path d="m798.175,898.758l17.316,34.634l-34.633,0l17.317,-34.634" class="cls-4" data-name="形状 3" id="形状_3-2"/>
   </g>
   <g data-name="组 65 拷贝 2" id="组_65_拷贝_2-2">
    <path d="m717.408,871.977a46.188,46.188 0 1 1 -46.17,46.188a46.18,46.18 0 0 1 46.17,-46.188z" class="cls-4" data-name="椭圆 773" id="椭圆_773-6"/>
    <g data-name="组 64" id="组_64-4">
     <path d="m718.609,890.452l-2.309,0l0,27.713l2.31,0l0,-27.713l-0.001,0z" class="cls-1" data-name="形状 2" id="形状_2-4"/>
     <path d="m692.175,931.021l1.155,2l24,-13.856l-1.155,-2l-24,13.856z" class="cls-1" data-name="形状 2 拷贝" id="形状_2_拷贝-4"/>
     <path d="m741.687,929.975l-1.165,2.036l-24.206,-14.111l1.164,-2.037l24.207,14.112z" class="cls-1" data-name="形状 2 拷贝 2" id="形状_2_拷贝_2-4"/>
    </g>
   </g>
  </g>
  <g id="母联">
   <path d="m1092.1,300.079l-2.3,0l0,207.844l2.3,0l0,-207.844z" class="cls-1" data-name="形状 5 拷贝 2" id="形状_5_拷贝_2"/>
   <path d="m1353.06,392.454l-2.3,0l0,41.569l2.3,0l0,-41.569z" class="cls-1" data-name="形状 5 拷贝 7" id="形状_5_拷贝_7"/>
   <path d="m1353.07,300.084l-2.02,0l0,61.182l2.02,0l0,-61.182z" class="cls-1" data-name="形状 5 拷贝 5" id="形状_5_拷贝_5"/>
   <path d="m1197.17,287.376l45.03,0l0,24.249l-45.03,0l0,-24.249z" class="cls-1" data-name="矩形 755" id="矩形_755"/>
   <path d="m1090.61,300.093l0,2.635l260.15,0l0,-2.635l-260.15,0z" class="cls-1" data-name="形状 5 拷贝 3" id="形状_5_拷贝_3"/>
   <g data-name="开闸 拷贝" id="开闸_拷贝">
    <path d="m1090.65,335.007c2.39,0 4.33,2.278 4.33,5.088s-1.94,5.088 -4.33,5.088s-4.33,-2.278 -4.33,-5.088s1.93,-5.088 4.33,-5.088z" class="cls-1" data-name="椭圆 774" id="椭圆_774"/>
    <path d="m1090.65,383.252c2.39,0 4.33,2.763 4.33,6.17s-1.94,6.171 -4.33,6.171s-4.33,-2.763 -4.33,-6.171s1.93,-6.17 4.33,-6.17z" class="cls-1" data-name="椭圆 774 拷贝" id="椭圆_774_拷贝"/>
    <path d="m1092.82,343.884l-4.32,0l0,50.845l4.32,0l0,-50.845z" class="cls-1" data-name="形状 6" id="形状_6"/>
   </g>
   <g data-name="开闸 拷贝 2" id="开闸_拷贝_2-3">
    <path d="m1351.34,333.023c2.22,0 4.02,2.278 4.02,5.088s-1.8,5.087 -4.02,5.087s-4.03,-2.278 -4.03,-5.087s1.8,-5.088 4.03,-5.088z" class="cls-1" data-name="椭圆 774" id="椭圆_774-2"/>
    <path d="m1351.34,381.015c2.22,0 4.02,2.77 4.02,6.188s-1.8,6.189 -4.02,6.189s-4.03,-2.771 -4.03,-6.189s1.8,-6.188 4.03,-6.188z" class="cls-1" data-name="椭圆 774 拷贝" id="椭圆_774_拷贝-2"/>
    <path d="m1353.37,341.921l-4.03,0l0,50.954l4.03,0l0,-50.954z" class="cls-1" data-name="形状 6" id="形状_6-2"/>
   </g>
  </g>
  <g data-name="母联" id="母联-2">
   <path d="m1797.72,1548.31l2.67,0l0,-216.99l-2.67,0l0,216.99z" class="cls-1" data-name="形状 5 拷贝 2" id="形状_5_拷贝_2-2"/>
   <path d="m1679.18,1366.97l2.67,0l0,-108.49l-2.67,0l0,108.49z" class="cls-1" data-name="形状 5 拷贝 4" id="形状_5_拷贝_4"/>
   <path d="m1678.63,1546.76l2.68,0l0,-97.65l-2.68,0l0,97.65z" class="cls-1" data-name="形状 5 拷贝 5" id="形状_5_拷贝_5-2"/>
   <path d="m1785.88,1482.45l26.74,0l0,46.48l-26.74,0l0,-46.48z" class="cls-1" data-name="矩形 755" id="矩形_755-2"/>
   <path d="m1800.39,1548.31l0,-3.1l-121.75,0l0,3.1l121.75,0z" class="cls-1" data-name="形状 5 拷贝 3" id="形状_5_拷贝_3-2"/>
   <g data-name="开闸 拷贝" id="开闸_拷贝-2">
    <path d="m1798.98,1439.04c2.97,0 5.38,2.78 5.38,6.21s-2.41,6.21 -5.38,6.21s-5.38,-2.78 -5.38,-6.21s2.41,-6.21 5.38,-6.21z" class="cls-1" data-name="椭圆 774" id="椭圆_774-3"/>
    <path d="m1798.98,1367.74c2.97,0 5.38,2.78 5.38,6.21s-2.41,6.2 -5.38,6.2s-5.38,-2.78 -5.38,-6.2s2.41,-6.21 5.38,-6.21z" class="cls-1" data-name="椭圆 774 拷贝" id="椭圆_774_拷贝-3"/>
    <path d="m1796.3,1440.59l5.35,0l0,-62l-5.35,0l0,62z" class="cls-1" data-name="形状 6" id="形状_6-3"/>
   </g>
   <g data-name="开闸 拷贝 2" id="开闸_拷贝_2-4">
    <path d="m1680.53,1439.04c2.94,0 5.33,2.78 5.33,6.21s-2.39,6.21 -5.33,6.21s-5.32,-2.78 -5.32,-6.21s2.38,-6.21 5.32,-6.21z" class="cls-1" data-name="椭圆 774" id="椭圆_774-4"/>
    <path d="m1680.53,1367.74c2.94,0 5.33,2.78 5.33,6.21s-2.39,6.2 -5.33,6.2s-5.32,-2.78 -5.32,-6.2s2.38,-6.21 5.32,-6.21z" class="cls-1" data-name="椭圆 774 拷贝" id="椭圆_774_拷贝-4"/>
    <path d="m1677.85,1440.59l5.35,0l0,-62l-5.35,0l0,62z" class="cls-1" data-name="形状 6" id="形状_6-4"/>
   </g>
  </g>
  <g data-name="主变 拷贝 10" id="主变_拷贝_10">
   <path d="m851.9,533.328l2.31,0l0,-101.614l-2.31,0l0,101.614z" class="cls-1" data-name="形状 5 拷贝 12" id="形状_5_拷贝_12"/>
   <path d="m756.073,507.924l-2.326,0l0,20.782l2.326,0l0,-20.782z" class="cls-1" data-name="形状 5 拷贝 11" id="形状_5_拷贝_11"/>
   <path d="m854.222,587.6l-2.322,0l0,23.091l2.326,0l0,-23.091l-0.004,0z" class="cls-1" data-name="形状 5 拷贝 23" id="形状_5_拷贝_23"/>
   <path d="m742.685,632.991l25.043,0l0,34.569l-25.043,0l0,-34.569z" class="cls-1" data-name="矩形 755" id="矩形_755-3"/>
   <g id="关闸">
    <path d="m852.814,528.347a4.634,4.634 0 1 1 -5.015,4.619a4.83,4.83 0 0 1 5.015,-4.619z" class="cls-1" data-name="椭圆 774 拷贝 8" id="椭圆_774_拷贝_8"/>
    <path d="m852.814,581.391a4.634,4.634 0 1 1 -5.015,4.619a4.83,4.83 0 0 1 5.015,-4.619z" class="cls-1" data-name="椭圆 774 拷贝 8" id="椭圆_774_拷贝_8-2"/>
    <path d="m826.518,544.524l4.258,-2.328l24.582,40.321l-4.258,2.328l-24.582,-40.321z" class="cls-1" data-name="形状 6 拷贝 7" id="形状_6_拷贝_7"/>
   </g>
  </g>
  <g data-name="主变 拷贝 11" id="主变_拷贝_11">
   <path d="m753.754,802.372l2.31,0l0,-284.056l-2.31,0l0,284.056z" class="cls-1" data-name="形状 5 拷贝 32" id="形状_5_拷贝_32"/>
   <path d="m753.763,610.7l0,-2.309l100.458,0l0,2.309l-100.458,0z" class="cls-1" data-name="形状 5 拷贝 20" id="形状_5_拷贝_20"/>
   <path d="m753.763,330.108l0,-2.308l100.458,0l0,2.309l-100.458,0l0,-0.001z" class="cls-1" data-name="形状 5 拷贝 25" id="形状_5_拷贝_25"/>
  </g>
  <circle r="4.625" cy="532.75" cx="754.625" class="cls-2" data-name="椭圆 774 拷贝 9" id="椭圆_774_拷贝_9"/>
  <circle r="4.625" cy="585.86" cx="754.625" class="cls-2" data-name="椭圆 774 拷贝 9" id="椭圆_774_拷贝_9-2"/>
  <path d="m752.31,536.213l4.619,0l0,46.187l-4.619,0l0,-46.187z" class="cls-1" data-name="形状 6 拷贝 8" id="形状_6_拷贝_8"/>
  <path d="m851.9,354.349l2.31,0l0,-26.558l-2.31,0l0,26.558z" class="cls-1" data-name="形状 5 拷贝 15" id="形状_5_拷贝_15"/>
  <path d="m756.073,328.946l-2.326,0l0,20.782l2.326,0l0,-20.782z" class="cls-1" data-name="形状 5 拷贝 15" id="形状_5_拷贝_15-2"/>
  <path d="m854.222,408.62l-2.322,0l0,23.091l2.326,0l0,-23.091l-0.004,0z" class="cls-1" data-name="形状 5 拷贝 24" id="形状_5_拷贝_24"/>
  <path d="m852.814,349.369a4.634,4.634 0 1 1 -5.015,4.619a4.83,4.83 0 0 1 5.015,-4.619z" class="cls-1" data-name="椭圆 774 拷贝 11" id="椭圆_774_拷贝_11"/>
  <path d="m852.814,402.413a4.634,4.634 0 1 1 -5.015,4.618a4.83,4.83 0 0 1 5.015,-4.618z" class="cls-1" data-name="椭圆 774 拷贝 11" id="椭圆_774_拷贝_11-2"/>
  <path d="m849.846,353.244l4,2.747l-24.875,40.141l-4,-2.748l24.875,-40.14z" class="cls-1" data-name="形状 6 拷贝 10" id="形状_6_拷贝_10"/>
  <path d="m753.754,514.852l2.31,0l0,-175.514l-2.31,0l0,175.514z" class="cls-1" data-name="形状 5 拷贝 33" id="形状_5_拷贝_33"/>
  <circle r="4.625" cy="353.765" cx="754.625" class="cls-2" data-name="椭圆 774 拷贝 11" id="椭圆_774_拷贝_11-3"/>
  <circle r="4.625" cy="406.89" cx="754.625" class="cls-2" data-name="椭圆 774 拷贝 11" id="椭圆_774_拷贝_11-4"/>
  <path d="m752.31,357.235l4.619,0l0,46.188l-4.619,0l0,-46.188z" class="cls-1" data-name="形状 6 拷贝 10" id="形状_6_拷贝_10-2"/>
  <path d="m716.8,1362.4l2.309,0l0,-101.61l-2.309,0l0,101.61z" class="cls-1" data-name="形状 5 拷贝 14" id="形状_5_拷贝_14"/>
  <path d="m620.974,1337l-2.327,0l0,20.78l2.327,0l0,-20.78z" class="cls-1" data-name="形状 5 拷贝 14" id="形状_5_拷贝_14-2"/>
  <path d="m719.123,1416.67l-2.323,0l0,23.09l2.327,0l0,-23.09l-0.004,0z" class="cls-1" data-name="形状 5 拷贝 31" id="形状_5_拷贝_31"/>
  <path d="m619.819,1418.98l-2.327,0l0,23.09l2.327,0l0,-23.09z" class="cls-1" data-name="形状 5 拷贝 37" id="形状_5_拷贝_37"/>
  <path d="m717.715,1357.42a4.636,4.636 0 1 1 -5.016,4.62a4.831,4.831 0 0 1 5.016,-4.62z" class="cls-1" data-name="椭圆 774 拷贝 15" id="椭圆_774_拷贝_15"/>
  <path d="m717.715,1410.46a4.636,4.636 0 1 1 -5.016,4.62a4.831,4.831 0 0 1 5.016,-4.62z" class="cls-1" data-name="椭圆 774 拷贝 15" id="椭圆_774_拷贝_15-2"/>
  <path d="m691.419,1373.6l4.258,-2.33l24.581,40.32l-4.258,2.33l-24.581,-40.32z" class="cls-1" data-name="形状 6 拷贝 14" id="形状_6_拷贝_14"/>
  <path d="m716.8,1161.48l2.309,0l0,-197.451l-2.309,0l0,197.451z" class="cls-1" data-name="形状 5 拷贝 35" id="形状_5_拷贝_35"/>
  <path d="m618.663,1159.18l0,-2.31l100.459,0l0,2.31l-100.459,0z" class="cls-1" data-name="形状 5 拷贝 31" id="形状_5_拷贝_31-2"/>
  <path d="m618.663,1442.08l0,-2.31l100.459,0l0,2.31l-100.459,0z" class="cls-1" data-name="形状 5 拷贝 36" id="形状_5_拷贝_36"/>
  <path d="m619.529,1357.2a4.62,4.62 0 1 1 -4.618,4.62a4.62,4.62 0 0 1 4.618,-4.62z" class="cls-1" data-name="椭圆 774 拷贝 15" id="椭圆_774_拷贝_15-3"/>
  <path d="m619.529,1410.32a4.62,4.62 0 1 1 -4.618,4.62a4.62,4.62 0 0 1 4.618,-4.62z" class="cls-1" data-name="椭圆 774 拷贝 15" id="椭圆_774_拷贝_15-4"/>
  <path d="m617.211,1365.29l4.619,0l0,46.18l-4.619,0l0,-46.18z" class="cls-1" data-name="形状 6 拷贝 14" id="形状_6_拷贝_14-2"/>
  <path d="m716.8,1183.42l2.309,0l0,-26.56l-2.309,0l0,26.56z" class="cls-1" data-name="形状 5 拷贝 22" id="形状_5_拷贝_22"/>
  <path d="m620.974,1158.02l-2.327,0l0,20.78l2.327,0l0,-20.78z" class="cls-1" data-name="形状 5 拷贝 22" id="形状_5_拷贝_22-2"/>
  <path d="m719.123,1237.69l-2.323,0l0,23.09l2.327,0l0,-23.09l-0.004,0z" class="cls-1" data-name="形状 5 拷贝 31" id="形状_5_拷贝_31-3"/>
  <path d="m717.715,1178.44a4.636,4.636 0 1 1 -5.016,4.62a4.831,4.831 0 0 1 5.016,-4.62z" class="cls-1" data-name="椭圆 774 拷贝 15" id="椭圆_774_拷贝_15-5"/>
  <path d="m717.715,1231.49a4.631,4.631 0 1 1 -5.016,4.61a4.823,4.823 0 0 1 5.016,-4.61z" class="cls-1" data-name="椭圆 774 拷贝 15" id="椭圆_774_拷贝_15-6"/>
  <path d="m714.747,1182.32l4,2.74l-24.875,40.14l-4,-2.74l24.875,-40.14z" class="cls-1" data-name="形状 6 拷贝 14" id="形状_6_拷贝_14-3"/>
  <path d="m618.655,1343.92l2.309,0l0,-175.51l-2.309,0l0,175.51z" class="cls-1" data-name="形状 5 拷贝 35" id="形状_5_拷贝_35-2"/>
  <path d="m619.529,1178.22a4.62,4.62 0 1 1 -4.618,4.62a4.62,4.62 0 0 1 4.618,-4.62z" class="cls-1" data-name="椭圆 774 拷贝 15" id="椭圆_774_拷贝_15-7"/>
  <path d="m619.529,1231.34a4.62,4.62 0 1 1 -4.618,4.62a4.62,4.62 0 0 1 4.618,-4.62z" class="cls-1" data-name="椭圆 774 拷贝 15" id="椭圆_774_拷贝_15-8"/>
  <path d="m617.211,1186.31l4.619,0l0,46.19l-4.619,0l0,-46.19z" class="cls-1" data-name="形状 6 拷贝 14" id="形状_6_拷贝_14-4"/>
  <circle r="4.625" cy="701.344" cx="754.625" class="cls-2" data-name="椭圆 774 拷贝 10" id="椭圆_774_拷贝_10"/>
  <path d="m754.629,749.832a4.619,4.619 0 1 1 -4.619,4.619a4.619,4.619 0 0 1 4.619,-4.619z" class="cls-1" data-name="椭圆 774 拷贝 10" id="椭圆_774_拷贝_10-2"/>
  <path d="m752.31,704.8l4.619,0l0,46.188l-4.619,0l0,-46.188z" class="cls-1" data-name="形状 6 拷贝 9" id="形状_6_拷贝_9"/>
  <path d="m1669.43,535.637l2.31,0l0,-101.613l-2.31,0l0,101.613z" class="cls-1" data-name="形状 5 拷贝 26" id="形状_5_拷贝_26"/>
  <path d="m1573.6,510.233l-2.33,0l0,20.782l2.33,0l0,-20.782z" class="cls-1" data-name="形状 5 拷贝 26" id="形状_5_拷贝_26-2"/>
  <path d="m1671.75,589.908l-2.33,0l0,23.092l2.33,0l0,-23.09l0,-0.002z" class="cls-1" data-name="形状 5 拷贝 26" id="形状_5_拷贝_26-3"/>
  <path d="m1560.21,635.3l25.04,0l0,34.568l-25.04,0l0,-34.568z" class="cls-1" data-name="矩形 755 拷贝" id="矩形_755_拷贝"/>
  <path d="m1670.34,530.656a4.635,4.635 0 1 1 -5.02,4.619a4.834,4.834 0 0 1 5.02,-4.619z" class="cls-1" data-name="椭圆 774 拷贝 13" id="椭圆_774_拷贝_13"/>
  <path d="m1670.34,583.7a4.635,4.635 0 1 1 -5.02,4.619a4.834,4.834 0 0 1 5.02,-4.619z" class="cls-1" data-name="椭圆 774 拷贝 13" id="椭圆_774_拷贝_13-2"/>
  <path d="m1644.04,546.833l4.26,-2.328l24.58,40.321l-4.25,2.328l-24.59,-40.321z" class="cls-1" data-name="形状 6 拷贝 12" id="形状_6_拷贝_12"/>
  <path d="m1571.28,804.681l2.31,0l0,-284.056l-2.31,0l0,284.056z" class="cls-1" data-name="形状 5 拷贝 34" id="形状_5_拷贝_34"/>
  <path d="m1571.29,613.009l0,-2.309l100.46,0l0,2.309l-100.46,0z" class="cls-1" data-name="形状 5 拷贝 26" id="形状_5_拷贝_26-4"/>
  <circle r="4.625" cy="535.063" cx="1572.155" class="cls-2" data-name="椭圆 774 拷贝 13" id="椭圆_774_拷贝_13-3"/>
  <circle r="4.625" cy="588.171" cx="1572.155" class="cls-2" data-name="椭圆 774 拷贝 13" id="椭圆_774_拷贝_13-4"/>
  <path d="m1569.84,538.522l4.61,0l0,46.188l-4.61,0l0,-46.188z" class="cls-1" data-name="形状 6 拷贝 12" id="形状_6_拷贝_12-2"/>
  <circle r="4.625" cy="703.64" cx="1572.155" class="cls-2" data-name="椭圆 774 拷贝 13" id="椭圆_774_拷贝_13-5"/>
  <circle r="4.625" cy="756.765" cx="1572.155" class="cls-2" data-name="椭圆 774 拷贝 13" id="椭圆_774_拷贝_13-6"/>
  <path d="m1569.84,707.108l4.61,0l0,46.192l-4.61,0l0,-46.192z" class="cls-1" data-name="形状 6 拷贝 12" id="形状_6_拷贝_12-3"/>
  <path d="m1434.05,1233.07l-2.32,0l0,101.62l2.32,0l0,-101.62z" class="cls-1" data-name="形状 5 拷贝 38" id="形状_5_拷贝_38"/>
  <path d="m1530.15,1258.48l2.33,0l0,-20.79l-2.33,0l0,20.79z" class="cls-1" data-name="形状 5 拷贝 38" id="形状_5_拷贝_38-2"/>
  <path d="m1431.72,1178.8l2.34,0l0,-23.09l-2.34,0l0,23.09z" class="cls-1" data-name="形状 5 拷贝 38" id="形状_5_拷贝_38-3"/>
  <path d="m1518.46,1098.84l25.12,0l0,34.57l-25.12,0l0,-34.57z" class="cls-1" data-name="矩形 755 拷贝 4" id="矩形_755_拷贝_4"/>
  <circle r="5.05" cy="1233.435" cx="1433.14" class="cls-2" data-name="椭圆 774 拷贝 16" id="椭圆_774_拷贝_16"/>
  <circle r="5.05" cy="1180.39" cx="1433.14" class="cls-2" data-name="椭圆 774 拷贝 16" id="椭圆_774_拷贝_16-2"/>
  <path d="m1459.51,1221.88l-4.27,2.32l-24.65,-40.32l4.27,-2.33l24.65,40.33z" class="cls-1" data-name="形状 6 拷贝 15" id="形状_6_拷贝_15"/>
  <path d="m1532.48,964.028l-2.32,0l0,284.052l2.32,0l0,-284.052z" class="cls-1" data-name="形状 5 拷贝 38" id="形状_5_拷贝_38-4"/>
  <path d="m1532.47,1155.7l0,2.31l-100.74,0l0,-2.31l100.74,0z" class="cls-1" data-name="形状 5 拷贝 38" id="形状_5_拷贝_38-5"/>
  <path d="m1531.6,1229.03a4.62,4.62 0 1 1 -4.62,4.62a4.613,4.613 0 0 1 4.62,-4.62z" class="cls-1" data-name="椭圆 774 拷贝 16" id="椭圆_774_拷贝_16-3"/>
  <circle r="4.625" cy="1180.535" cx="1531.595" class="cls-2" data-name="椭圆 774 拷贝 16" id="椭圆_774_拷贝_16-4"/>
  <path d="m1533.92,1230.19l-4.63,0l0,-46.19l4.63,0l0,46.19z" class="cls-1" data-name="形状 6 拷贝 15" id="形状_6_拷贝_15-2"/>
  <path d="m1531.6,1060.45a4.615,4.615 0 1 1 -4.62,4.61a4.6,4.6 0 0 1 4.62,-4.61z" class="cls-1" data-name="椭圆 774 拷贝 16" id="椭圆_774_拷贝_16-5"/>
  <path d="m1531.6,1007.33a4.62,4.62 0 1 1 -4.62,4.62a4.613,4.613 0 0 1 4.62,-4.62z" class="cls-1" data-name="椭圆 774 拷贝 16" id="椭圆_774_拷贝_16-6"/>
  <path d="m1533.92,1061.6l-4.63,0l0,-46.19l4.63,0l0,46.19z" class="cls-1" data-name="形状 6 拷贝 15" id="形状_6_拷贝_15-3"/>
  <ellipse ry="45.556298" rx="44.445169" id="svg_1" cy="738.782601" cx="502.21004" stroke-width="4" stroke="#C97A86" fill="none"/>
  <ellipse id="svg_2" cy="757.671798" cx="519.988107" stroke-width="4" stroke="#000" fill="#fff"/>
 </g>
</svg>