<svg id="接线" xmlns="http://www.w3.org/2000/svg" width="2500" height="1740" viewBox="0 0 2500 1740">
  <defs>
    <style>
      .cls-1, .cls-2 {
        fill: #7ed0ff;
      }

      .cls-1, .cls-4 {
        fill-rule: evenodd;
      }

      .cls-3, .cls-4 {
        fill: none;
        stroke: #7ed0ff;
        stroke-width: 2px;
      }
    </style>
  </defs>
  <g id="母线">
    <path id="形状_1_拷贝_2" data-name="形状 1 拷贝 2" class="cls-1" d="M374.551,429.4v4.619H2114.7V429.4H374.551Z"/>
    <path id="形状_1_拷贝_2-2" data-name="形状 1 拷贝 2" class="cls-1" d="M281.473,1258.48v4.62H2213.28v-4.62H281.473Z"/>
    <path id="形状_1_拷贝_4" data-name="形状 1 拷贝 4" class="cls-1" d="M355.375,505.614v4.618h1771.3v-4.618H355.375Z"/>
    <path id="形状_1_拷贝_4-2" data-name="形状 1 拷贝 4" class="cls-1" d="M281.473,1332.38V1337H2213.29v-4.62H281.473Z"/>
  </g>
  <g id="母线互感器_拷贝_6" data-name="母线互感器 拷贝 6">
    <g id="开闸_拷贝_2" data-name="开闸 拷贝 2">
      <path id="形状_5_拷贝_27" data-name="形状 5 拷贝 27" class="cls-1" d="M494.387,1216.91h-2.31v46.19h2.31v-46.19Z"/>
      <path id="形状_5_拷贝_27-2" data-name="形状 5 拷贝 27" class="cls-1" d="M493.954,1078.34h-2.309v80.83h2.309v-80.83Z"/>
      <path id="椭圆_774_拷贝_3" data-name="椭圆 774 拷贝 3" class="cls-1" d="M492.26,1153.98a4.615,4.615,0,1,1-4.619,4.62A4.614,4.614,0,0,1,492.26,1153.98Z"/>
      <circle id="椭圆_774_拷贝_3-2" data-name="椭圆 774 拷贝 3" class="cls-2" cx="492.265" cy="1211.715" r="4.609"/>
      <path id="形状_6_拷贝_2" data-name="形状 6 拷贝 2" class="cls-1" d="M494.594,1162.06h-4.619v46.19h4.619v-46.19Z"/>
      <path id="形状_5_拷贝_28" data-name="形状 5 拷贝 28" class="cls-1" d="M500.16,647.642h-2.309v46.187h2.309V647.642Z"/>
      <path id="形状_5_拷贝_28-2" data-name="形状 5 拷贝 28" class="cls-1" d="M499.727,509.078h-2.309v80.829h2.309V509.078Z"/>
      <circle id="椭圆_774_拷贝_12" data-name="椭圆 774 拷贝 12" class="cls-2" cx="498.031" cy="589.329" r="4.625"/>
      <path id="椭圆_774_拷贝_12-2" data-name="椭圆 774 拷贝 12" class="cls-1" d="M498.034,637.827a4.619,4.619,0,1,1-4.619,4.618A4.618,4.618,0,0,1,498.034,637.827Z"/>
      <path id="形状_6_拷贝_11" data-name="形状 6 拷贝 11" class="cls-1" d="M500.367,592.793h-4.619v46.188h4.619V592.793Z"/>
      <path id="形状_5_拷贝_30" data-name="形状 5 拷贝 30" class="cls-1" d="M1889.26,645.332h-2.31V691.52h2.31V645.332Z"/>
      <path id="形状_5_拷贝_30-2" data-name="形状 5 拷贝 30" class="cls-1" d="M1888.83,431.714h-2.31V587.6h2.31V431.714Z"/>
      <circle id="椭圆_774_拷贝_14" data-name="椭圆 774 拷贝 14" class="cls-2" cx="1887.125" cy="587.015" r="4.625"/>
      <circle id="椭圆_774_拷贝_14-2" data-name="椭圆 774 拷贝 14" class="cls-2" cx="1887.125" cy="640.14" r="4.625"/>
      <path id="形状_6_拷贝_13" data-name="形状 6 拷贝 13" class="cls-1" d="M1889.47,590.484h-4.62v46.188h4.62V590.484Z"/>
    </g>
  </g>
  <g id="母线互感器_拷贝_7" data-name="母线互感器 拷贝 7">
    <g id="开闸_拷贝_2-2" data-name="开闸 拷贝 2">
      <path id="形状_5_拷贝_29" data-name="形状 5 拷贝 29" class="cls-1" d="M1961.64,1332.38h2.31V1171.87h-2.31v160.51Z"/>
      <path id="形状_5_拷贝_29-2" data-name="形状 5 拷贝 29" class="cls-1" d="M1961.79,1117.6h2.31v-46.18h-2.31v46.18Z"/>
      <circle id="椭圆_774_拷贝_4" data-name="椭圆 774 拷贝 4" class="cls-2" cx="1962.73" cy="1171.3" r="4.61"/>
      <circle id="椭圆_774_拷贝_4-2" data-name="椭圆 774 拷贝 4" class="cls-2" cx="1962.73" cy="1118.185" r="4.61"/>
      <path id="形状_6_拷贝_3" data-name="形状 6 拷贝 3" class="cls-1" d="M1960.42,1167.83h4.62v-46.19h-4.62v46.19Z"/>
    </g>
  </g>
  <g id="主变1">
    <g id="组_65" data-name="组 65">
      <circle id="椭圆_773" data-name="椭圆 773" class="cls-3" cx="1571.955" cy="849.093" r="46.205"/>
      <g id="组_64" data-name="组 64">
        <path id="形状_2" data-name="形状 2" class="cls-1" d="M1570.84,821.39h2.31V849.1h-2.31V821.39Z"/>
        <path id="形状_2_拷贝" data-name="形状 2 拷贝" class="cls-1" d="M1597.28,860.8l-1.16,2-24-13.856,1.16-2Z"/>
        <path id="形状_2_拷贝_2" data-name="形状 2 拷贝 2" class="cls-1" d="M1547.77,860.912l1.16,2.036,24.21-14.108-1.17-2.037Z"/>
      </g>
    </g>
    <g id="组_65_拷贝" data-name="组 65 拷贝">
      <path id="椭圆_773-2" data-name="椭圆 773" class="cls-4" d="M1531.56,871.977a46.188,46.188,0,1,1-46.19,46.188A46.19,46.19,0,0,1,1531.56,871.977Z"/>
      <path id="形状_3" data-name="形状 3" class="cls-4" d="M1531.58,898.758l-17.31,34.634h34.63l-17.32-34.634"/>
    </g>
    <g id="组_65_拷贝_2" data-name="组 65 拷贝 2">
      <path id="椭圆_773-3" data-name="椭圆 773" class="cls-4" d="M1612.26,871.977a46.188,46.188,0,1,1-46.17,46.188A46.179,46.179,0,0,1,1612.26,871.977Z"/>
      <g id="组_64-2" data-name="组 64">
        <path id="形状_2-2" data-name="形状 2" class="cls-1" d="M1611.15,890.452h2.31v27.713h-2.31V890.452Z"/>
        <path id="形状_2_拷贝-2" data-name="形状 2 拷贝" class="cls-1" d="M1636.43,931.021l-1.16,2-24-13.856,1.16-2Z"/>
        <path id="形状_2_拷贝_2-2" data-name="形状 2 拷贝 2" class="cls-1" d="M1588.07,929.975l1.17,2.036,24.2-14.108-1.16-2.037Z"/>
      </g>
    </g>
  </g>
  <g id="主变2">
    <g id="组_65-2" data-name="组 65">
      <path id="椭圆_773-4" data-name="椭圆 773" class="cls-4" d="M757.714,802.912A46.188,46.188,0,1,1,711.508,849.1,46.2,46.2,0,0,1,757.714,802.912Z"/>
      <g id="组_64-3" data-name="组 64">
        <path id="形状_2-3" data-name="形状 2" class="cls-1" d="M758.915,821.39h-2.309V849.1h2.309V821.39Z"/>
        <path id="形状_2_拷贝-3" data-name="形状 2 拷贝" class="cls-1" d="M732.481,860.8l1.155,2,24-13.856-1.155-2Z"/>
        <path id="形状_2_拷贝_2-3" data-name="形状 2 拷贝 2" class="cls-1" d="M781.993,860.912l-1.165,2.036L756.622,848.84l1.164-2.037Z"/>
      </g>
    </g>
    <g id="组_65_拷贝-2" data-name="组 65 拷贝">
      <circle id="椭圆_773-5" data-name="椭圆 773" class="cls-3" cx="798.125" cy="918.157" r="46.187"/>
      <path id="形状_3-2" data-name="形状 3" class="cls-4" d="M798.175,898.758l17.316,34.634H780.858l17.317-34.634"/>
    </g>
    <g id="组_65_拷贝_2-2" data-name="组 65 拷贝 2">
      <path id="椭圆_773-6" data-name="椭圆 773" class="cls-4" d="M717.408,871.977a46.188,46.188,0,1,1-46.17,46.188A46.18,46.18,0,0,1,717.408,871.977Z"/>
      <g id="组_64-4" data-name="组 64">
        <path id="形状_2-4" data-name="形状 2" class="cls-1" d="M718.609,890.452H716.3v27.713h2.31V890.452Z"/>
        <path id="形状_2_拷贝-4" data-name="形状 2 拷贝" class="cls-1" d="M692.175,931.021l1.155,2,24-13.856-1.155-2Z"/>
        <path id="形状_2_拷贝_2-4" data-name="形状 2 拷贝 2" class="cls-1" d="M741.687,929.975l-1.165,2.036L716.316,917.9l1.164-2.037Z"/>
      </g>
    </g>
  </g>
  <g id="母联">
    <path id="形状_5_拷贝_2" data-name="形状 5 拷贝 2" class="cls-1" d="M1092.1,300.079h-2.3V507.923h2.3V300.079Z"/>
    <path id="形状_5_拷贝_7" data-name="形状 5 拷贝 7" class="cls-1" d="M1353.06,392.454h-2.3v41.569h2.3V392.454Z"/>
    <path id="形状_5_拷贝_5" data-name="形状 5 拷贝 5" class="cls-1" d="M1353.07,300.084h-2.02v61.182h2.02V300.084Z"/>
    <path id="矩形_755" data-name="矩形 755" class="cls-1" d="M1197.17,287.376h45.03v24.249h-45.03V287.376Z"/>
    <path id="形状_5_拷贝_3" data-name="形状 5 拷贝 3" class="cls-1" d="M1090.61,300.093v2.635h260.15v-2.635H1090.61Z"/>
    <g id="开闸_拷贝" data-name="开闸 拷贝">
      <path id="椭圆_774" data-name="椭圆 774" class="cls-1" d="M1090.65,335.007c2.39,0,4.33,2.278,4.33,5.088s-1.94,5.088-4.33,5.088-4.33-2.278-4.33-5.088S1088.25,335.007,1090.65,335.007Z"/>
      <path id="椭圆_774_拷贝" data-name="椭圆 774 拷贝" class="cls-1" d="M1090.65,383.252c2.39,0,4.33,2.763,4.33,6.17s-1.94,6.171-4.33,6.171-4.33-2.763-4.33-6.171S1088.25,383.252,1090.65,383.252Z"/>
      <path id="形状_6" data-name="形状 6" class="cls-1" d="M1092.82,343.884h-4.32v50.845h4.32V343.884Z"/>
    </g>
    <g id="开闸_拷贝_2-3" data-name="开闸 拷贝 2">
      <path id="椭圆_774-2" data-name="椭圆 774" class="cls-1" d="M1351.34,333.023c2.22,0,4.02,2.278,4.02,5.088s-1.8,5.087-4.02,5.087-4.03-2.278-4.03-5.087S1349.11,333.023,1351.34,333.023Z"/>
      <path id="椭圆_774_拷贝-2" data-name="椭圆 774 拷贝" class="cls-1" d="M1351.34,381.015c2.22,0,4.02,2.77,4.02,6.188s-1.8,6.189-4.02,6.189-4.03-2.771-4.03-6.189S1349.11,381.015,1351.34,381.015Z"/>
      <path id="形状_6-2" data-name="形状 6" class="cls-1" d="M1353.37,341.921h-4.03v50.954h4.03V341.921Z"/>
    </g>
  </g>
  <g id="母联-2" data-name="母联">
    <path id="形状_5_拷贝_2-2" data-name="形状 5 拷贝 2" class="cls-1" d="M1797.72,1548.31h2.67V1331.32h-2.67v216.99Z"/>
    <path id="形状_5_拷贝_4" data-name="形状 5 拷贝 4" class="cls-1" d="M1679.18,1366.97h2.67V1258.48h-2.67v108.49Z"/>
    <path id="形状_5_拷贝_5-2" data-name="形状 5 拷贝 5" class="cls-1" d="M1678.63,1546.76h2.68v-97.65h-2.68v97.65Z"/>
    <path id="矩形_755-2" data-name="矩形 755" class="cls-1" d="M1785.88,1482.45h26.74v46.48h-26.74v-46.48Z"/>
    <path id="形状_5_拷贝_3-2" data-name="形状 5 拷贝 3" class="cls-1" d="M1800.39,1548.31v-3.1H1678.64v3.1h121.75Z"/>
    <g id="开闸_拷贝-2" data-name="开闸 拷贝">
      <path id="椭圆_774-3" data-name="椭圆 774" class="cls-1" d="M1798.98,1439.04c2.97,0,5.38,2.78,5.38,6.21s-2.41,6.21-5.38,6.21-5.38-2.78-5.38-6.21S1796.01,1439.04,1798.98,1439.04Z"/>
      <path id="椭圆_774_拷贝-3" data-name="椭圆 774 拷贝" class="cls-1" d="M1798.98,1367.74c2.97,0,5.38,2.78,5.38,6.21s-2.41,6.2-5.38,6.2-5.38-2.78-5.38-6.2S1796.01,1367.74,1798.98,1367.74Z"/>
      <path id="形状_6-3" data-name="形状 6" class="cls-1" d="M1796.3,1440.59h5.35v-62h-5.35v62Z"/>
    </g>
    <g id="开闸_拷贝_2-4" data-name="开闸 拷贝 2">
      <path id="椭圆_774-4" data-name="椭圆 774" class="cls-1" d="M1680.53,1439.04c2.94,0,5.33,2.78,5.33,6.21s-2.39,6.21-5.33,6.21-5.32-2.78-5.32-6.21S1677.59,1439.04,1680.53,1439.04Z"/>
      <path id="椭圆_774_拷贝-4" data-name="椭圆 774 拷贝" class="cls-1" d="M1680.53,1367.74c2.94,0,5.33,2.78,5.33,6.21s-2.39,6.2-5.33,6.2-5.32-2.78-5.32-6.2S1677.59,1367.74,1680.53,1367.74Z"/>
      <path id="形状_6-4" data-name="形状 6" class="cls-1" d="M1677.85,1440.59h5.35v-62h-5.35v62Z"/>
    </g>
  </g>
  <g id="主变_拷贝_10" data-name="主变 拷贝 10">
    <path id="形状_5_拷贝_12" data-name="形状 5 拷贝 12" class="cls-1" d="M851.9,533.328h2.31V431.714H851.9V533.328Z"/>
    <path id="形状_5_拷贝_11" data-name="形状 5 拷贝 11" class="cls-1" d="M756.073,507.924h-2.326v20.782h2.326V507.924Z"/>
    <path id="形状_5_拷贝_23" data-name="形状 5 拷贝 23" class="cls-1" d="M854.222,587.6H851.9v23.091h2.326V587.6Z"/>
    <path id="矩形_755-3" data-name="矩形 755" class="cls-1" d="M742.685,632.991h25.043V667.56H742.685V632.991Z"/>
    <g id="关闸">
      <path id="椭圆_774_拷贝_8" data-name="椭圆 774 拷贝 8" class="cls-1" d="M852.814,528.347a4.634,4.634,0,1,1-5.015,4.619A4.83,4.83,0,0,1,852.814,528.347Z"/>
      <path id="椭圆_774_拷贝_8-2" data-name="椭圆 774 拷贝 8" class="cls-1" d="M852.814,581.391a4.634,4.634,0,1,1-5.015,4.619A4.83,4.83,0,0,1,852.814,581.391Z"/>
      <path id="形状_6_拷贝_7" data-name="形状 6 拷贝 7" class="cls-1" d="M826.518,544.524l4.258-2.328,24.582,40.321-4.258,2.328Z"/>
    </g>
  </g>
  <g id="主变_拷贝_11" data-name="主变 拷贝 11">
    <path id="形状_5_拷贝_32" data-name="形状 5 拷贝 32" class="cls-1" d="M753.754,802.372h2.31V518.316h-2.31V802.372Z"/>
    <path id="形状_5_拷贝_20" data-name="形状 5 拷贝 20" class="cls-1" d="M753.763,610.7v-2.309H854.221V610.7H753.763Z"/>
    <path id="形状_5_拷贝_25" data-name="形状 5 拷贝 25" class="cls-1" d="M753.763,330.108V327.8H854.221v2.309H753.763Z"/>
  </g>
  <circle id="椭圆_774_拷贝_9" data-name="椭圆 774 拷贝 9" class="cls-2" cx="754.625" cy="532.75" r="4.625"/>
  <circle id="椭圆_774_拷贝_9-2" data-name="椭圆 774 拷贝 9" class="cls-2" cx="754.625" cy="585.86" r="4.625"/>
  <path id="形状_6_拷贝_8" data-name="形状 6 拷贝 8" class="cls-1" d="M752.31,536.213h4.619V582.4H752.31V536.213Z"/>
  <path id="形状_5_拷贝_15" data-name="形状 5 拷贝 15" class="cls-1" d="M851.9,354.349h2.31V327.791H851.9v26.558Z"/>
  <path id="形状_5_拷贝_15-2" data-name="形状 5 拷贝 15" class="cls-1" d="M756.073,328.946h-2.326v20.782h2.326V328.946Z"/>
  <path id="形状_5_拷贝_24" data-name="形状 5 拷贝 24" class="cls-1" d="M854.222,408.62H851.9v23.091h2.326V408.62Z"/>
  <path id="椭圆_774_拷贝_11" data-name="椭圆 774 拷贝 11" class="cls-1" d="M852.814,349.369a4.634,4.634,0,1,1-5.015,4.619A4.83,4.83,0,0,1,852.814,349.369Z"/>
  <path id="椭圆_774_拷贝_11-2" data-name="椭圆 774 拷贝 11" class="cls-1" d="M852.814,402.413a4.634,4.634,0,1,1-5.015,4.618A4.83,4.83,0,0,1,852.814,402.413Z"/>
  <path id="形状_6_拷贝_10" data-name="形状 6 拷贝 10" class="cls-1" d="M849.846,353.244l4,2.747-24.875,40.141-4-2.748Z"/>
  <path id="形状_5_拷贝_33" data-name="形状 5 拷贝 33" class="cls-1" d="M753.754,514.852h2.31V339.338h-2.31V514.852Z"/>
  <circle id="椭圆_774_拷贝_11-3" data-name="椭圆 774 拷贝 11" class="cls-2" cx="754.625" cy="353.765" r="4.625"/>
  <circle id="椭圆_774_拷贝_11-4" data-name="椭圆 774 拷贝 11" class="cls-2" cx="754.625" cy="406.89" r="4.625"/>
  <path id="形状_6_拷贝_10-2" data-name="形状 6 拷贝 10" class="cls-1" d="M752.31,357.235h4.619v46.188H752.31V357.235Z"/>
  <path id="形状_5_拷贝_14" data-name="形状 5 拷贝 14" class="cls-1" d="M716.8,1362.4h2.309V1260.79H716.8V1362.4Z"/>
  <path id="形状_5_拷贝_14-2" data-name="形状 5 拷贝 14" class="cls-1" d="M620.974,1337h-2.327v20.78h2.327V1337Z"/>
  <path id="形状_5_拷贝_31" data-name="形状 5 拷贝 31" class="cls-1" d="M719.123,1416.67H716.8v23.09h2.327v-23.09Z"/>
  <path id="形状_5_拷贝_37" data-name="形状 5 拷贝 37" class="cls-1" d="M619.819,1418.98h-2.327v23.09h2.327v-23.09Z"/>
  <path id="椭圆_774_拷贝_15" data-name="椭圆 774 拷贝 15" class="cls-1" d="M717.715,1357.42a4.636,4.636,0,1,1-5.016,4.62A4.831,4.831,0,0,1,717.715,1357.42Z"/>
  <path id="椭圆_774_拷贝_15-2" data-name="椭圆 774 拷贝 15" class="cls-1" d="M717.715,1410.46a4.636,4.636,0,1,1-5.016,4.62A4.831,4.831,0,0,1,717.715,1410.46Z"/>
  <path id="形状_6_拷贝_14" data-name="形状 6 拷贝 14" class="cls-1" d="M691.419,1373.6l4.258-2.33,24.581,40.32L716,1413.92Z"/>
  <path id="形状_5_拷贝_35" data-name="形状 5 拷贝 35" class="cls-1" d="M716.8,1161.48h2.309V964.029H716.8V1161.48Z"/>
  <path id="形状_5_拷贝_31-2" data-name="形状 5 拷贝 31" class="cls-1" d="M618.663,1159.18v-2.31H719.122v2.31H618.663Z"/>
  <path id="形状_5_拷贝_36" data-name="形状 5 拷贝 36" class="cls-1" d="M618.663,1442.08v-2.31H719.122v2.31H618.663Z"/>
  <path id="椭圆_774_拷贝_15-3" data-name="椭圆 774 拷贝 15" class="cls-1" d="M619.529,1357.2a4.62,4.62,0,1,1-4.618,4.62A4.62,4.62,0,0,1,619.529,1357.2Z"/>
  <path id="椭圆_774_拷贝_15-4" data-name="椭圆 774 拷贝 15" class="cls-1" d="M619.529,1410.32a4.62,4.62,0,1,1-4.618,4.62A4.62,4.62,0,0,1,619.529,1410.32Z"/>
  <path id="形状_6_拷贝_14-2" data-name="形状 6 拷贝 14" class="cls-1" d="M617.211,1365.29h4.619v46.18h-4.619v-46.18Z"/>
  <path id="形状_5_拷贝_22" data-name="形状 5 拷贝 22" class="cls-1" d="M716.8,1183.42h2.309v-26.56H716.8v26.56Z"/>
  <path id="形状_5_拷贝_22-2" data-name="形状 5 拷贝 22" class="cls-1" d="M620.974,1158.02h-2.327v20.78h2.327v-20.78Z"/>
  <path id="形状_5_拷贝_31-3" data-name="形状 5 拷贝 31" class="cls-1" d="M719.123,1237.69H716.8v23.09h2.327v-23.09Z"/>
  <path id="椭圆_774_拷贝_15-5" data-name="椭圆 774 拷贝 15" class="cls-1" d="M717.715,1178.44a4.636,4.636,0,1,1-5.016,4.62A4.831,4.831,0,0,1,717.715,1178.44Z"/>
  <path id="椭圆_774_拷贝_15-6" data-name="椭圆 774 拷贝 15" class="cls-1" d="M717.715,1231.49a4.631,4.631,0,1,1-5.016,4.61A4.823,4.823,0,0,1,717.715,1231.49Z"/>
  <path id="形状_6_拷贝_14-3" data-name="形状 6 拷贝 14" class="cls-1" d="M714.747,1182.32l4,2.74-24.875,40.14-4-2.74Z"/>
  <path id="形状_5_拷贝_35-2" data-name="形状 5 拷贝 35" class="cls-1" d="M618.655,1343.92h2.309V1168.41h-2.309v175.51Z"/>
  <path id="椭圆_774_拷贝_15-7" data-name="椭圆 774 拷贝 15" class="cls-1" d="M619.529,1178.22a4.62,4.62,0,1,1-4.618,4.62A4.62,4.62,0,0,1,619.529,1178.22Z"/>
  <path id="椭圆_774_拷贝_15-8" data-name="椭圆 774 拷贝 15" class="cls-1" d="M619.529,1231.34a4.62,4.62,0,1,1-4.618,4.62A4.62,4.62,0,0,1,619.529,1231.34Z"/>
  <path id="形状_6_拷贝_14-4" data-name="形状 6 拷贝 14" class="cls-1" d="M617.211,1186.31h4.619v46.19h-4.619v-46.19Z"/>
  <circle id="椭圆_774_拷贝_10" data-name="椭圆 774 拷贝 10" class="cls-2" cx="754.625" cy="701.344" r="4.625"/>
  <path id="椭圆_774_拷贝_10-2" data-name="椭圆 774 拷贝 10" class="cls-1" d="M754.629,749.832a4.619,4.619,0,1,1-4.619,4.619A4.619,4.619,0,0,1,754.629,749.832Z"/>
  <path id="形状_6_拷贝_9" data-name="形状 6 拷贝 9" class="cls-1" d="M752.31,704.8h4.619v46.188H752.31V704.8Z"/>
  <path id="形状_5_拷贝_26" data-name="形状 5 拷贝 26" class="cls-1" d="M1669.43,535.637h2.31V434.024h-2.31V535.637Z"/>
  <path id="形状_5_拷贝_26-2" data-name="形状 5 拷贝 26" class="cls-1" d="M1573.6,510.233h-2.33v20.782h2.33V510.233Z"/>
  <path id="形状_5_拷贝_26-3" data-name="形状 5 拷贝 26" class="cls-1" d="M1671.75,589.908h-2.33V613h2.33v-23.09Z"/>
  <path id="矩形_755_拷贝" data-name="矩形 755 拷贝" class="cls-1" d="M1560.21,635.3h25.04v34.568h-25.04V635.3Z"/>
  <path id="椭圆_774_拷贝_13" data-name="椭圆 774 拷贝 13" class="cls-1" d="M1670.34,530.656a4.635,4.635,0,1,1-5.02,4.619A4.834,4.834,0,0,1,1670.34,530.656Z"/>
  <path id="椭圆_774_拷贝_13-2" data-name="椭圆 774 拷贝 13" class="cls-1" d="M1670.34,583.7a4.635,4.635,0,1,1-5.02,4.619A4.834,4.834,0,0,1,1670.34,583.7Z"/>
  <path id="形状_6_拷贝_12" data-name="形状 6 拷贝 12" class="cls-1" d="M1644.04,546.833l4.26-2.328,24.58,40.321-4.25,2.328Z"/>
  <path id="形状_5_拷贝_34" data-name="形状 5 拷贝 34" class="cls-1" d="M1571.28,804.681h2.31V520.625h-2.31V804.681Z"/>
  <path id="形状_5_拷贝_26-4" data-name="形状 5 拷贝 26" class="cls-1" d="M1571.29,613.009V610.7h100.46v2.309H1571.29Z"/>
  <circle id="椭圆_774_拷贝_13-3" data-name="椭圆 774 拷贝 13" class="cls-2" cx="1572.155" cy="535.063" r="4.625"/>
  <circle id="椭圆_774_拷贝_13-4" data-name="椭圆 774 拷贝 13" class="cls-2" cx="1572.155" cy="588.171" r="4.625"/>
  <path id="形状_6_拷贝_12-2" data-name="形状 6 拷贝 12" class="cls-1" d="M1569.84,538.522h4.61V584.71h-4.61V538.522Z"/>
  <circle id="椭圆_774_拷贝_13-5" data-name="椭圆 774 拷贝 13" class="cls-2" cx="1572.155" cy="703.64" r="4.625"/>
  <circle id="椭圆_774_拷贝_13-6" data-name="椭圆 774 拷贝 13" class="cls-2" cx="1572.155" cy="756.765" r="4.625"/>
  <path id="形状_6_拷贝_12-3" data-name="形状 6 拷贝 12" class="cls-1" d="M1569.84,707.108h4.61V753.3h-4.61V707.108Z"/>
  <path id="形状_5_拷贝_38" data-name="形状 5 拷贝 38" class="cls-1" d="M1434.05,1233.07h-2.32v101.62h2.32V1233.07Z"/>
  <path id="形状_5_拷贝_38-2" data-name="形状 5 拷贝 38" class="cls-1" d="M1530.15,1258.48h2.33v-20.79h-2.33v20.79Z"/>
  <path id="形状_5_拷贝_38-3" data-name="形状 5 拷贝 38" class="cls-1" d="M1431.72,1178.8h2.34v-23.09h-2.34v23.09Z"/>
  <path id="矩形_755_拷贝_4" data-name="矩形 755 拷贝 4" class="cls-1" d="M1518.46,1098.84h25.12v34.57h-25.12v-34.57Z"/>
  <circle id="椭圆_774_拷贝_16" data-name="椭圆 774 拷贝 16" class="cls-2" cx="1433.14" cy="1233.435" r="5.05"/>
  <circle id="椭圆_774_拷贝_16-2" data-name="椭圆 774 拷贝 16" class="cls-2" cx="1433.14" cy="1180.39" r="5.05"/>
  <path id="形状_6_拷贝_15" data-name="形状 6 拷贝 15" class="cls-1" d="M1459.51,1221.88l-4.27,2.32-24.65-40.32,4.27-2.33Z"/>
  <path id="形状_5_拷贝_38-4" data-name="形状 5 拷贝 38" class="cls-1" d="M1532.48,964.028h-2.32V1248.08h2.32V964.028Z"/>
  <path id="形状_5_拷贝_38-5" data-name="形状 5 拷贝 38" class="cls-1" d="M1532.47,1155.7v2.31H1431.73v-2.31h100.74Z"/>
  <path id="椭圆_774_拷贝_16-3" data-name="椭圆 774 拷贝 16" class="cls-1" d="M1531.6,1229.03a4.62,4.62,0,1,1-4.62,4.62A4.613,4.613,0,0,1,1531.6,1229.03Z"/>
  <circle id="椭圆_774_拷贝_16-4" data-name="椭圆 774 拷贝 16" class="cls-2" cx="1531.595" cy="1180.535" r="4.625"/>
  <path id="形状_6_拷贝_15-2" data-name="形状 6 拷贝 15" class="cls-1" d="M1533.92,1230.19h-4.63V1184h4.63v46.19Z"/>
  <path id="椭圆_774_拷贝_16-5" data-name="椭圆 774 拷贝 16" class="cls-1" d="M1531.6,1060.45a4.615,4.615,0,1,1-4.62,4.61A4.6,4.6,0,0,1,1531.6,1060.45Z"/>
  <path id="椭圆_774_拷贝_16-6" data-name="椭圆 774 拷贝 16" class="cls-1" d="M1531.6,1007.33a4.62,4.62,0,1,1-4.62,4.62A4.613,4.613,0,0,1,1531.6,1007.33Z"/>
  <path id="形状_6_拷贝_15-3" data-name="形状 6 拷贝 15" class="cls-1" d="M1533.92,1061.6h-4.63v-46.19h4.63v46.19Z"/>
</svg>
