<svg id="接线" xmlns="http://www.w3.org/2000/svg" width="2500" height="1740" viewBox="0 0 2500 1740">
  <defs>
    <style>
      .cls-1, .cls-2 {
        fill: #7ed0ff;
      }

      .cls-1, .cls-3 {
        fill-rule: evenodd;
      }

      .cls-3 {
        fill: none;
        stroke: #7ed0ff;
        stroke-width: 2px;
      }
    </style>
  </defs>
  <g id="母线">
    <path id="形状_1_拷贝_2" data-name="形状 1 拷贝 2" class="cls-1" d="M117,712.993v4.8H1191v-4.8H117Z"/>
    <path id="形状_1_拷贝_2-2" data-name="形状 1 拷贝 2" class="cls-1" d="M117,768.186v4.8H1191v-4.8H117Z"/>
    <path id="形状_1_拷贝_4" data-name="形状 1 拷贝 4" class="cls-1" d="M1241.01,709.007v4.8H2424.99v-4.8H1241.01Z"/>
    <path id="形状_1_拷贝_4-2" data-name="形状 1 拷贝 4" class="cls-1" d="M1241.01,764.2V769H2424.99v-4.8H1241.01Z"/>
  </g>
  <g id="母线互感器_拷贝_6" data-name="母线互感器 拷贝 6">
    <path id="形状_5_拷贝_4" data-name="形状 5 拷贝 4" class="cls-1" d="M1989.44,661.348h-2.41v48.144h2.41V661.348Z"/>
    <path id="形状_5_拷贝_6" data-name="形状 5 拷贝 6" class="cls-1" d="M1989.44,549.414h-2.41v48.144h2.41V549.414Z"/>
    <g id="开闸_拷贝_2" data-name="开闸 拷贝 2">
      <circle id="椭圆_774" data-name="椭圆 774" class="cls-2" cx="1988.435" cy="600.563" r="4.815"/>
      <path id="椭圆_774_拷贝" data-name="椭圆 774 拷贝" class="cls-1" d="M1988.42,651.118a4.814,4.814,0,1,1-4.81,4.814A4.818,4.818,0,0,1,1988.42,651.118Z"/>
      <path id="形状_6" data-name="形状 6" class="cls-1" d="M1990.86,604.178h-4.82v48.143h4.82V604.178Z"/>
      <path id="形状_5_拷贝_27" data-name="形状 5 拷贝 27" class="cls-1" d="M2129.82,560.432h-2.41v48.144h2.41V560.432Z"/>
      <path id="形状_5_拷贝_27-2" data-name="形状 5 拷贝 27" class="cls-1" d="M2128.16,667.552h-2.41v101.1h2.41v-101.1Z"/>
      <circle id="椭圆_774_拷贝_3" data-name="椭圆 774 拷贝 3" class="cls-2" cx="2126.405" cy="609.188" r="4.815"/>
      <circle id="椭圆_774_拷贝_3-2" data-name="椭圆 774 拷贝 3" class="cls-2" cx="2126.405" cy="664.532" r="4.815"/>
      <path id="形状_6_拷贝_2" data-name="形状 6 拷贝 2" class="cls-1" d="M2128.83,612.788h-4.82v48.144h4.82V612.788Z"/>
    </g>
  </g>
  <g id="母线互感器_拷贝_7" data-name="母线互感器 拷贝 7">
    <path id="形状_5_拷贝_4-2" data-name="形状 5 拷贝 4" class="cls-1" d="M998,673h-2v45h2V673Z"/>
    <path id="形状_5_拷贝_6-2" data-name="形状 5 拷贝 6" class="cls-1" d="M997.753,561.21h-2.408v48.144h2.408V561.21Z"/>
    <g id="开闸_拷贝_2-2" data-name="开闸 拷贝 2">
      <circle id="椭圆_774-2" data-name="椭圆 774" class="cls-2" cx="996.718" cy="612.375" r="4.812"/>
      <circle id="椭圆_774_拷贝-2" data-name="椭圆 774 拷贝" class="cls-2" cx="996.718" cy="667.718" r="4.812"/>
      <path id="形状_6-2" data-name="形状 6" class="cls-1" d="M999.172,615.974h-4.815v48.144h4.815V615.974Z"/>
      <path id="形状_5_拷贝_29" data-name="形状 5 拷贝 29" class="cls-1" d="M637.992,661.024h-2V770.989h2V661.024Z"/>
      <path id="形状_5_拷贝_29-2" data-name="形状 5 拷贝 29" class="cls-1" d="M637.746,550.767h-2.407v48.144h2.407V550.767Z"/>
      <path id="椭圆_774_拷贝_4" data-name="椭圆 774 拷贝 4" class="cls-1" d="M636.762,597.106a4.814,4.814,0,1,1-4.814,4.814A4.814,4.814,0,0,1,636.762,597.106Z"/>
      <circle id="椭圆_774_拷贝_4-2" data-name="椭圆 774 拷贝 4" class="cls-2" cx="636.75" cy="657.282" r="4.812"/>
      <path id="形状_6_拷贝_3" data-name="形状 6 拷贝 3" class="cls-1" d="M639.166,605.531h-4.815v48.144h4.815V605.531Z"/>
    </g>
  </g>
  <g id="主变1">
    <g id="组_65" data-name="组 65">
      <path id="椭圆_773" data-name="椭圆 773" class="cls-3" d="M870,1114.51a48.14,48.14,0,1,1-48.162,48.14A48.149,48.149,0,0,1,870,1114.51Z"/>
      <g id="组_64" data-name="组 64">
        <path id="形状_2" data-name="形状 2" class="cls-1" d="M868.836,1133.77h2.408v28.88h-2.408v-28.88Z"/>
        <path id="形状_2_拷贝" data-name="形状 2 拷贝" class="cls-1" d="M896.389,1174.85l-1.2,2.08-25.017-14.44,1.2-2.08Z"/>
        <path id="形状_2_拷贝_2" data-name="形状 2 拷贝 2" class="cls-1" d="M844.781,1174.96l1.214,2.12,25.232-14.7-1.214-2.12Z"/>
      </g>
    </g>
    <g id="组_65_拷贝" data-name="组 65 拷贝">
      <path id="椭圆_773-2" data-name="椭圆 773" class="cls-3" d="M827.888,1186.5a48.14,48.14,0,1,1-48.144,48.14A48.14,48.14,0,0,1,827.888,1186.5Z"/>
      <path id="形状_3" data-name="形状 3" class="cls-3" d="M827.914,1214.41l-18.05,36.1h36.1l-18.05-36.1"/>
    </g>
    <g id="组_65_拷贝_2" data-name="组 65 拷贝 2">
      <path id="椭圆_773-3" data-name="椭圆 773" class="cls-3" d="M912.008,1186.5a48.14,48.14,0,1,1-48.125,48.14A48.13,48.13,0,0,1,912.008,1186.5Z"/>
      <g id="组_64-2" data-name="组 64">
        <path id="形状_2-2" data-name="形状 2" class="cls-1" d="M910.849,1205.75h2.407v28.89h-2.407v-28.89Z"/>
        <path id="形状_2_拷贝-2" data-name="形状 2 拷贝" class="cls-1" d="M937.2,1248.04l-1.2,2.09-25.016-14.45,1.2-2.08Z"/>
        <path id="形状_2_拷贝_2-2" data-name="形状 2 拷贝 2" class="cls-1" d="M886.794,1246.95l1.214,2.12,25.232-14.7-1.214-2.13Z"/>
      </g>
    </g>
  </g>
  <g id="主变2">
    <g id="组_65-2" data-name="组 65">
      <path id="椭圆_773-4" data-name="椭圆 773" class="cls-3" d="M476.569,1110.71a48.145,48.145,0,1,1-48.163,48.14A48.15,48.15,0,0,1,476.569,1110.71Z"/>
      <g id="组_64-3" data-name="组 64">
        <path id="形状_2-3" data-name="形状 2" class="cls-1" d="M477.783,1129.97h-2.407v28.89h2.407v-28.89Z"/>
        <path id="形状_2_拷贝-3" data-name="形状 2 拷贝" class="cls-1" d="M450.23,1171.05l1.2,2.09,25.017-14.45-1.2-2.08Z"/>
        <path id="形状_2_拷贝_2-3" data-name="形状 2 拷贝 2" class="cls-1" d="M501.838,1171.17l-1.214,2.12-25.231-14.71,1.214-2.12Z"/>
      </g>
    </g>
    <g id="组_65_拷贝-2" data-name="组 65 拷贝">
      <path id="椭圆_773-5" data-name="椭圆 773" class="cls-3" d="M518.657,1182.7a48.145,48.145,0,1,1-48.125,48.14A48.13,48.13,0,0,1,518.657,1182.7Z"/>
      <path id="形状_3-2" data-name="形状 3" class="cls-3" d="M518.705,1210.61l18.05,36.1h-36.1l18.05-36.1"/>
    </g>
    <g id="组_65_拷贝_2-2" data-name="组 65 拷贝 2">
      <path id="椭圆_773-6" data-name="椭圆 773" class="cls-3" d="M434.537,1182.7a48.145,48.145,0,1,1-48.144,48.14A48.14,48.14,0,0,1,434.537,1182.7Z"/>
      <g id="组_64-4" data-name="组 64">
        <path id="形状_2-4" data-name="形状 2" class="cls-1" d="M435.77,1201.96h-2.407v28.88h2.407v-28.88Z"/>
        <path id="形状_2_拷贝-4" data-name="形状 2 拷贝" class="cls-1" d="M408.217,1244.24l1.2,2.09,25.016-14.44-1.2-2.09Z"/>
        <path id="形状_2_拷贝_2-4" data-name="形状 2 拷贝 2" class="cls-1" d="M459.825,1243.15l-1.214,2.13-25.231-14.71,1.214-2.12Z"/>
      </g>
    </g>
  </g>
  <g id="母联">
    <path id="形状_5_拷贝_2" data-name="形状 5 拷贝 2" class="cls-1" d="M391.514,542.178h-2.4V768h2.4V542.178Z"/>
    <path id="形状_5_拷贝_4-3" data-name="形状 5 拷贝 4" class="cls-1" d="M498.471,681.515h-2.4V717.55h2.4V681.515Z"/>
    <path id="形状_5_拷贝_5" data-name="形状 5 拷贝 5" class="cls-1" d="M498.921,542.779h-2.4v75.674h2.4V542.779Z"/>
    <path id="矩形_755" data-name="矩形 755" class="cls-1" d="M424.656,535H460.6v23.952H424.656V535Z"/>
    <path id="形状_5_拷贝_3" data-name="形状 5 拷贝 3" class="cls-1" d="M389.567,541.577v2.4h109.35v-2.4H389.567Z"/>
    <g id="开闸_拷贝" data-name="开闸 拷贝">
      <path id="椭圆_774-3" data-name="椭圆 774" class="cls-1" d="M390.82,616.648a4.8,4.8,0,1,1-4.82,4.8A4.812,4.812,0,0,1,390.82,616.648Z"/>
      <path id="椭圆_774_拷贝-3" data-name="椭圆 774 拷贝" class="cls-1" d="M390.82,671.912a4.8,4.8,0,1,1-4.82,4.8A4.812,4.812,0,0,1,390.82,671.912Z"/>
      <path id="形状_6-3" data-name="形状 6" class="cls-1" d="M393.241,625.059h-4.806v48.047h4.806V625.059Z"/>
    </g>
    <g id="开闸_拷贝_2-3" data-name="开闸 拷贝 2">
      <circle id="椭圆_774-4" data-name="椭圆 774" class="cls-2" cx="497.203" cy="621.453" r="4.797"/>
      <circle id="椭圆_774_拷贝-4" data-name="椭圆 774 拷贝" class="cls-2" cx="497.203" cy="676.718" r="4.797"/>
      <path id="形状_6-4" data-name="形状 6" class="cls-1" d="M499.625,625.059h-4.807v48.047h4.807V625.059Z"/>
    </g>
  </g>
  <g id="母联-2" data-name="母联">
    <path id="形状_5_拷贝_2-2" data-name="形状 5 拷贝 2" class="cls-1" d="M1607.32,545.989h-2.79v168.5h2.79v-168.5Z"/>
    <path id="形状_5_拷贝_4-4" data-name="形状 5 拷贝 4" class="cls-1" d="M1730.85,686.809h-2.79v84.252h2.79V686.809Z"/>
    <path id="形状_5_拷贝_5-2" data-name="形状 5 拷贝 5" class="cls-1" d="M1731.41,547.192h-2.78v75.827h2.78V547.192Z"/>
    <rect id="矩形_755-2" data-name="矩形 755" class="cls-2" x="1647" y="534" width="36" height="28"/>
    <path id="形状_5_拷贝_3-2" data-name="形状 5 拷贝 3" class="cls-1" d="M1604.54,545.989V548.4h126.87v-2.407H1604.54Z"/>
    <g id="开闸_拷贝-2" data-name="开闸 拷贝">
      <path id="椭圆_774-5" data-name="椭圆 774" class="cls-1" d="M1606.01,621.213c3.09,0,5.6,2.156,5.6,4.815s-2.51,4.814-5.6,4.814-5.61-2.155-5.61-4.814S1602.91,621.213,1606.01,621.213Z"/>
      <path id="椭圆_774_拷贝-5" data-name="椭圆 774 拷贝" class="cls-1" d="M1606.01,676.579c3.09,0,5.6,2.155,5.6,4.814s-2.51,4.815-5.6,4.815-5.61-2.156-5.61-4.815S1602.91,676.579,1606.01,676.579Z"/>
      <path id="形状_6-5" data-name="形状 6" class="cls-1" d="M1608.8,629.639h-5.58v48.143h5.58V629.639Z"/>
    </g>
    <g id="开闸_拷贝_2-4" data-name="开闸 拷贝 2">
      <path id="椭圆_774-6" data-name="椭圆 774" class="cls-1" d="M1729.43,621.213c3.07,0,5.55,2.156,5.55,4.815s-2.48,4.814-5.55,4.814-5.55-2.155-5.55-4.814S1726.37,621.213,1729.43,621.213Z"/>
      <path id="椭圆_774_拷贝-6" data-name="椭圆 774 拷贝" class="cls-1" d="M1729.43,676.579c3.07,0,5.55,2.155,5.55,4.814s-2.48,4.815-5.55,4.815-5.55-2.156-5.55-4.815S1726.37,676.579,1729.43,676.579Z"/>
      <path id="形状_6-6" data-name="形状 6" class="cls-1" d="M1732.23,629.639h-5.58v48.143h5.58V629.639Z"/>
    </g>
  </g>
  <g id="主变_拷贝_10" data-name="主变 拷贝 10">
    <path id="形状_5_拷贝_23" data-name="形状 5 拷贝 23" class="cls-1" d="M642.008,1299.01v1.98H1480.99v-1.98H642.008Z"/>
    <path id="形状_5_拷贝_25" data-name="形状 5 拷贝 25" class="cls-1" d="M960,1234.01v1.98h909v-1.98H960Z"/>
    <path id="形状_5_拷贝_24" data-name="形状 5 拷贝 24" class="cls-1" d="M642.59,1230.44h-2.407v69.81h2.407v-69.81Z"/>
    <g id="开闸_拷贝-3" data-name="开闸 拷贝">
      <path id="形状_5_拷贝_21" data-name="形状 5 拷贝 21" class="cls-1" d="M476.984,1111.02H474V866.991h2.98V1111.02Z"/>
      <path id="形状_5_拷贝_21-2" data-name="形状 5 拷贝 21" class="cls-1" d="M477.987,805h-2.98V769h2.98v36Z"/>
      <path id="形状_5_拷贝_21-3" data-name="形状 5 拷贝 21" class="cls-1" d="M540.989,804.968H538.01V718.032h2.979v86.936Z"/>
      <path id="形状_5_拷贝_21-4" data-name="形状 5 拷贝 21" class="cls-1" d="M540.9,901.093H538.29V867.455H540.9v33.638Z"/>
      <path id="矩形_755_拷贝_3" data-name="矩形 755 拷贝 3" class="cls-1" d="M462.68,922.709H488.7v36.012H462.68V922.709Z"/>
      <path id="形状_5_拷贝_21-5" data-name="形状 5 拷贝 21" class="cls-1" d="M475.72,902.294v-2.4H540.9v2.4H475.72Z"/>
      <circle id="椭圆_774_拷贝_6" data-name="椭圆 774 拷贝 6" class="cls-2" cx="475.703" cy="1046.435" r="5.234"/>
      <path id="椭圆_774_拷贝_6-2" data-name="椭圆 774 拷贝 6" class="cls-1" d="M475.705,986.363a4.827,4.827,0,1,1-5.235,4.81A5.037,5.037,0,0,1,475.705,986.363Z"/>
      <path id="形状_6_拷贝_5" data-name="形状 6 拷贝 5" class="cls-1" d="M478.327,1042.85h-5.214V994.8h5.214v48.053Z"/>
      <circle id="椭圆_774_拷贝_6-3" data-name="椭圆 774 拷贝 6" class="cls-2" cx="476.328" cy="864.438" r="5.203"/>
      <circle id="椭圆_774_拷贝_6-4" data-name="椭圆 774 拷贝 6" class="cls-2" cx="476.328" cy="809.188" r="5.203"/>
      <path id="形状_6_拷贝_5-2" data-name="形状 6 拷贝 5" class="cls-1" d="M449,852.4l4.425,2.426,25.55-42.007-4.425-2.425Z"/>
      <circle id="椭圆_774_拷贝_6-5" data-name="椭圆 774 拷贝 6" class="cls-2" cx="539.578" cy="864.438" r="5.234"/>
      <circle id="椭圆_774_拷贝_6-6" data-name="椭圆 774 拷贝 6" class="cls-2" cx="539.578" cy="809.188" r="5.234"/>
      <path id="形状_6_拷贝_5-3" data-name="形状 6 拷贝 5" class="cls-1" d="M542.2,860.848h-5.214V812.794H542.2v48.054Z"/>
      <path id="形状_5_拷贝_26" data-name="形状 5 拷贝 26" class="cls-1" d="M868.984,1113.02H866V868.991h2.98V1113.02Z"/>
      <path id="形状_5_拷贝_26-2" data-name="形状 5 拷贝 26" class="cls-1" d="M869.987,807h-2.98V771h2.98v36Z"/>
      <path id="形状_5_拷贝_26-3" data-name="形状 5 拷贝 26" class="cls-1" d="M932.989,806.968H930.01V720.032h2.979v86.936Z"/>
      <path id="形状_5_拷贝_26-4" data-name="形状 5 拷贝 26" class="cls-1" d="M932.9,903.093H930.29V869.455H932.9v33.638Z"/>
      <path id="矩形_755_拷贝_7" data-name="矩形 755 拷贝 7" class="cls-1" d="M854.68,924.709H880.7v36.012H854.68V924.709Z"/>
      <path id="形状_5_拷贝_26-5" data-name="形状 5 拷贝 26" class="cls-1" d="M867.72,904.294v-2.4H932.9v2.4H867.72Z"/>
      <circle id="椭圆_774_拷贝_10" data-name="椭圆 774 拷贝 10" class="cls-2" cx="867.704" cy="1048.435" r="5.234"/>
      <path id="椭圆_774_拷贝_10-2" data-name="椭圆 774 拷贝 10" class="cls-1" d="M867.705,988.363a4.827,4.827,0,1,1-5.235,4.81A5.037,5.037,0,0,1,867.705,988.363Z"/>
      <path id="形状_6_拷贝_9" data-name="形状 6 拷贝 9" class="cls-1" d="M870.327,1044.85h-5.214V996.8h5.214v48.053Z"/>
      <circle id="椭圆_774_拷贝_10-3" data-name="椭圆 774 拷贝 10" class="cls-2" cx="868.328" cy="866.438" r="5.203"/>
      <circle id="椭圆_774_拷贝_10-4" data-name="椭圆 774 拷贝 10" class="cls-2" cx="868.328" cy="811.188" r="5.203"/>
      <path id="形状_6_拷贝_9-2" data-name="形状 6 拷贝 9" class="cls-1" d="M841,854.4l4.425,2.426,25.55-42.007-4.425-2.425Z"/>
      <circle id="椭圆_774_拷贝_10-5" data-name="椭圆 774 拷贝 10" class="cls-2" cx="931.578" cy="866.438" r="5.234"/>
      <circle id="椭圆_774_拷贝_10-6" data-name="椭圆 774 拷贝 10" class="cls-2" cx="931.578" cy="811.188" r="5.234"/>
      <path id="形状_6_拷贝_9-3" data-name="形状 6 拷贝 9" class="cls-1" d="M934.2,862.848h-5.214V814.794H934.2v48.054Z"/>
      <path id="形状_5_拷贝_28" data-name="形状 5 拷贝 28" class="cls-1" d="M1481.01,1298.97H1478V861.983h3.01V1298.97Z"/>
      <path id="形状_5_拷贝_28-2" data-name="形状 5 拷贝 28" class="cls-1" d="M1481.99,800h-2.98V764h2.98v36Z"/>
      <path id="形状_5_拷贝_28-3" data-name="形状 5 拷贝 28" class="cls-1" d="M1544.99,799.968h-2.98V713.032h2.98v86.936Z"/>
      <path id="形状_5_拷贝_28-4" data-name="形状 5 拷贝 28" class="cls-1" d="M1544.9,896.093h-2.61V862.455h2.61v33.638Z"/>
      <path id="矩形_755_拷贝_8" data-name="矩形 755 拷贝 8" class="cls-1" d="M1466.68,917.709h26.02v36.012h-26.02V917.709Z"/>
      <path id="形状_5_拷贝_28-5" data-name="形状 5 拷贝 28" class="cls-1" d="M1479.72,897.294v-2.4h65.18v2.4h-65.18Z"/>
      <circle id="椭圆_774_拷贝_11" data-name="椭圆 774 拷贝 11" class="cls-2" cx="1479.705" cy="1041.435" r="5.235"/>
      <path id="椭圆_774_拷贝_11-2" data-name="椭圆 774 拷贝 11" class="cls-1" d="M1479.71,981.363a4.828,4.828,0,1,1-5.24,4.81A5.033,5.033,0,0,1,1479.71,981.363Z"/>
      <path id="形状_6_拷贝_10" data-name="形状 6 拷贝 10" class="cls-1" d="M1482.33,1037.85h-5.22V989.8h5.22v48.053Z"/>
      <circle id="椭圆_774_拷贝_11-3" data-name="椭圆 774 拷贝 11" class="cls-2" cx="1480.325" cy="859.438" r="5.205"/>
      <circle id="椭圆_774_拷贝_11-4" data-name="椭圆 774 拷贝 11" class="cls-2" cx="1480.325" cy="804.188" r="5.205"/>
      <path id="形状_6_拷贝_10-2" data-name="形状 6 拷贝 10" class="cls-1" d="M1453,847.4l4.42,2.426,25.55-42.007-4.42-2.425Z"/>
      <circle id="椭圆_774_拷贝_11-5" data-name="椭圆 774 拷贝 11" class="cls-2" cx="1543.575" cy="859.438" r="5.235"/>
      <circle id="椭圆_774_拷贝_11-6" data-name="椭圆 774 拷贝 11" class="cls-2" cx="1543.575" cy="804.188" r="5.235"/>
      <path id="形状_6_拷贝_10-3" data-name="形状 6 拷贝 10" class="cls-1" d="M1546.2,855.848h-5.21V807.794h5.21v48.054Z"/>
      <path id="形状_5_拷贝_30" data-name="形状 5 拷贝 30" class="cls-1" d="M1872.01,1234H1869V865.012h3.01V1234Z"/>
      <path id="形状_5_拷贝_30-2" data-name="形状 5 拷贝 30" class="cls-1" d="M1872.99,803h-2.98V767h2.98v36Z"/>
      <path id="形状_5_拷贝_30-3" data-name="形状 5 拷贝 30" class="cls-1" d="M1935.99,802.968h-2.98V716.032h2.98v86.936Z"/>
      <path id="形状_5_拷贝_30-4" data-name="形状 5 拷贝 30" class="cls-1" d="M1935.9,899.093h-2.61V865.455h2.61v33.638Z"/>
      <path id="矩形_755_拷贝_9" data-name="矩形 755 拷贝 9" class="cls-1" d="M1857.68,920.709h26.02v36.012h-26.02V920.709Z"/>
      <path id="形状_5_拷贝_30-5" data-name="形状 5 拷贝 30" class="cls-1" d="M1870.72,900.294v-2.4h65.18v2.4h-65.18Z"/>
      <circle id="椭圆_774_拷贝_12" data-name="椭圆 774 拷贝 12" class="cls-2" cx="1870.705" cy="1044.435" r="5.235"/>
      <path id="椭圆_774_拷贝_12-2" data-name="椭圆 774 拷贝 12" class="cls-1" d="M1870.71,984.363a4.828,4.828,0,1,1-5.24,4.81A5.033,5.033,0,0,1,1870.71,984.363Z"/>
      <path id="形状_6_拷贝_11" data-name="形状 6 拷贝 11" class="cls-1" d="M1873.33,1040.85h-5.22V992.8h5.22v48.053Z"/>
      <circle id="椭圆_774_拷贝_12-3" data-name="椭圆 774 拷贝 12" class="cls-2" cx="1871.325" cy="862.438" r="5.205"/>
      <circle id="椭圆_774_拷贝_12-4" data-name="椭圆 774 拷贝 12" class="cls-2" cx="1871.325" cy="807.188" r="5.205"/>
      <path id="形状_6_拷贝_11-2" data-name="形状 6 拷贝 11" class="cls-1" d="M1844,850.4l4.42,2.426,25.55-42.007-4.42-2.425Z"/>
      <circle id="椭圆_774_拷贝_12-5" data-name="椭圆 774 拷贝 12" class="cls-2" cx="1934.575" cy="862.438" r="5.235"/>
      <circle id="椭圆_774_拷贝_12-6" data-name="椭圆 774 拷贝 12" class="cls-2" cx="1934.575" cy="807.188" r="5.235"/>
      <path id="形状_6_拷贝_11-3" data-name="形状 6 拷贝 11" class="cls-1" d="M1937.2,858.848h-5.21V810.794h5.21v48.054Z"/>
      <path id="形状_5_拷贝_22" data-name="形状 5 拷贝 22" class="cls-1" d="M567.99,1232.01v-2H642v2H567.99Z"/>
    </g>
  </g>
</svg>
